<?xml version="1.0" encoding="UTF-8"?> <svg xmlns="http://www.w3.org/2000/svg" width="144.82" height="44.791" viewBox="0 0 144.82 44.791"><g id="Group_664" data-name="Group 664" transform="translate(-10702.331 -5018.556)"><g id="Group_662" data-name="Group 662" transform="translate(-178.872 -8.242)"><path id="Path_733" data-name="Path 733" d="M29.535,40c-.107.093-.192.168-.274.247-.043.037-.076.067-.109.1-.093.086-.181.173-.268.258s-.174.178-.257.267c-.038.038-.07.072-.1.107-.083.092-.167.185-.247.277A12.752,12.752,0,0,0,25.592,46.3h.775a11.874,11.874,0,0,1,2.426-4.5c.083-.094.168-.188.252-.282.041-.044.072-.079.107-.113.081-.09.169-.181.258-.27.063-.063.126-.123.189-.183l.2-.185c.091-.085.186-.167.283-.251a11.856,11.856,0,0,1,4.5-2.427v-.773A12.736,12.736,0,0,0,29.535,40" transform="translate(10865.691 4999.568)" fill="#1b441c"></path><path id="Path_734" data-name="Path 734" d="M39.914,37.528c.176-.007.353-.011.531-.011s.354,0,.53.011c.126.006.253.013.379.022q.162.012.325.029v-.75c-.116-.011-.231-.021-.347-.028s-.247-.015-.37-.02c-.343-.014-.692-.014-1.035,0-.123,0-.247.011-.369.02s-.231.017-.347.028v.75q.162-.017.325-.029c.126-.009.253-.016.379-.022" transform="translate(10863.154 4999.669)" fill="#1b441c"></path><path id="Path_735" data-name="Path 735" d="M39.876,33.189v.7c.124,0,.249-.006.374-.006s.249,0,.373.006v-.7l.046-.044a5.457,5.457,0,0,0-.171-8l-.248-.221L40,25.142a5.457,5.457,0,0,0-.171,8Zm.263-7.133.111-.123.111.123a4.71,4.71,0,0,1,0,6.335l-.111.123-.111-.123a4.71,4.71,0,0,1,0-6.335" transform="translate(10863.349 5001.877)" fill="#1b441c"></path><path id="Path_736" data-name="Path 736" d="M27.368,38.558v-.063a5.456,5.456,0,0,0-5.78-5.538l-.332.019-.02.332a5.457,5.457,0,0,0,5.538,5.78h.064l.493.494c.086-.09.173-.18.26-.269s.178-.175.269-.26Zm-.907-.222a4.709,4.709,0,0,1-4.479-4.479l-.009-.166.166.008a4.709,4.709,0,0,1,4.479,4.479l.008.165Z" transform="translate(10866.505 5000.381)" fill="#1b441c"></path><path id="Path_737" data-name="Path 737" d="M25.833,51.253q.012-.162.029-.325h-.75q-.017.173-.029.347c-.009.123-.015.246-.02.369-.015.343-.015.692,0,1.035,0,.124.011.247.02.37s.018.231.029.346h.75c-.011-.107-.021-.216-.029-.324-.01-.126-.017-.253-.022-.379h0c-.015-.352-.015-.709,0-1.06.006-.127.013-.253.023-.379" transform="translate(10865.792 4997.031)" fill="#1b441c"></path><path id="Path_738" data-name="Path 738" d="M21.471,52.342h.7c0-.124-.006-.249-.006-.374s0-.249.006-.373h-.7l-.045-.046a5.455,5.455,0,0,0-8,.171l-.221.248.221.249a5.455,5.455,0,0,0,8,.171Zm-.8-.263a4.708,4.708,0,0,1-6.335,0l-.122-.111.122-.111a4.711,4.711,0,0,1,6.335,0l.123.111Z" transform="translate(10868 4997.226)" fill="#1b441c"></path><path id="Path_739" data-name="Path 739" d="M26.8,51.985c0,.124-.007.249-.007.373s0,.25.007.374h1.933c-.006-.124-.008-.249-.008-.374s0-.25.008-.373Z" transform="translate(10865.467 4996.834)" fill="#1b441c"></path><path id="Path_740" data-name="Path 740" d="M27.862,64.318c-.09-.086-.18-.173-.269-.26s-.175-.178-.26-.269l-.494.494h-.063a5.457,5.457,0,0,0-5.538,5.78l.02.332.332.02a5.456,5.456,0,0,0,5.78-5.538v-.064Zm-1.244.872a4.709,4.709,0,0,1-4.479,4.479l-.166.009.008-.166a4.709,4.709,0,0,1,4.479-4.479l.165-.008Z" transform="translate(10866.505 4994.635)" fill="#1b441c"></path><path id="Path_741" data-name="Path 741" d="M53.028,56.536a11.859,11.859,0,0,1-2.426,4.5c-.081.1-.167.192-.253.284-.018.022-.042.048-.066.073l-.035.037c-.086.093-.175.184-.266.275s-.18.177-.271.263c-.035.034-.074.07-.116.106l-.039.035c-.08.072-.159.143-.239.213a11.826,11.826,0,0,1-4.5,2.427v.775a12.734,12.734,0,0,0,5.042-2.688c.072-.062.141-.124.209-.186l.1-.1q.035-.031.068-.063c.092-.085.181-.171.266-.26.069-.067.132-.133.2-.2l.1-.1c.021-.023.043-.046.063-.07.087-.094.169-.184.249-.278A12.778,12.778,0,0,0,53.8,56.536Z" transform="translate(10862.109 4995.987)" fill="#1b441c"></path><path id="Path_742" data-name="Path 742" d="M30.078,62.32c-.08-.07-.159-.141-.238-.212l-.046-.041c-.037-.034-.075-.068-.112-.106-.067-.059-.134-.126-.2-.192l-.331-.338c-.037-.041-.072-.078-.106-.119-.082-.085-.166-.181-.249-.279a11.83,11.83,0,0,1-2.428-4.5h-.773a12.735,12.735,0,0,0,2.684,5.042c.082.094.162.186.247.274.037.043.067.076.1.109q.129.138.258.267c.089.089.178.175.267.258.035.035.067.063.1.093.1.091.194.174.286.255a12.753,12.753,0,0,0,5.045,2.688v-.776a11.863,11.863,0,0,1-4.5-2.426" transform="translate(10865.691 4995.986)" fill="#1b441c"></path><path id="Path_743" data-name="Path 743" d="M40.974,67.174c-.352.015-.709.015-1.06,0-.127-.006-.253-.013-.379-.022q-.162-.012-.325-.029v.75c.116.011.23.021.346.029s.247.015.37.02c.343.014.692.014,1.035,0,.124,0,.247-.011.37-.02s.231-.018.346-.029v-.75q-.162.017-.325.029-.189.013-.378.022" transform="translate(10863.154 4994.014)" fill="#1b441c"></path><path id="Path_744" data-name="Path 744" d="M40.624,69.645v-.7c-.248.007-.5.007-.748,0v.7l-.046.045a5.456,5.456,0,0,0,.171,8l.248.221.249-.221a5.456,5.456,0,0,0,.171-8Zm-.263,7.133-.111.123-.111-.123a4.71,4.71,0,0,1,0-6.335l.111-.122.111.122a4.71,4.71,0,0,1,0,6.335" transform="translate(10863.349 4993.676)" fill="#1b441c"></path><path id="Path_745" data-name="Path 745" d="M40.267,65.922c.248.008.5.008.747,0V63.99c-.248.01-.5.01-.747,0Z" transform="translate(10862.958 4994.598)" fill="#1b441c"></path><path id="Path_746" data-name="Path 746" d="M57.106,65.879a5.513,5.513,0,0,0-3.949-1.6h-.063L52.6,63.79q-.12.127-.244.251l-.016.016c-.089.089-.177.175-.268.26l.493.494v.063a5.457,5.457,0,0,0,5.78,5.538l.331-.02.02-.332a5.471,5.471,0,0,0-1.589-4.183m.688,3.791a4.709,4.709,0,0,1-4.479-4.479l-.009-.165.166.008a4.709,4.709,0,0,1,4.479,4.479l.008.165Z" transform="translate(10860.758 4994.635)" fill="#1b441c"></path><path id="Path_747" data-name="Path 747" d="M56.185,51.274c-.008-.116-.018-.231-.029-.346H55.4c.011.107.021.216.029.324.009.127.016.253.022.379.015.352.015.709,0,1.061-.007.126-.014.252-.023.378-.008.109-.018.216-.029.325h.75c.011-.116.021-.23.029-.346s.015-.247.02-.369c.014-.344.014-.692,0-1.036,0-.124-.011-.247-.02-.37" transform="translate(10860.137 4997.031)" fill="#1b441c"></path><path id="Path_748" data-name="Path 748" d="M65.974,51.719a5.456,5.456,0,0,0-8-.171l-.045.046h-.7c0,.124.006.249.006.373s0,.25-.006.374h.7l.045.046a5.456,5.456,0,0,0,8-.171l.221-.249Zm-.915.36a4.708,4.708,0,0,1-6.335,0l-.122-.111.122-.111a4.711,4.711,0,0,1,6.335,0l.123.111Z" transform="translate(10859.799 4997.226)" fill="#1b441c"></path><path id="Path_749" data-name="Path 749" d="M52.272,51.985c0,.124.007.249.007.373s0,.25-.007.374H54.2c0-.124.007-.249.007-.374s0-.249-.007-.373Z" transform="translate(10860.721 4996.834)" fill="#1b441c"></path><path id="Path_750" data-name="Path 750" d="M58.7,33.308l-.02-.332-.331-.02a5.456,5.456,0,0,0-5.78,5.538v.063l-.493.495c.09.085.18.171.268.26s.175.177.26.268l.494-.493h.146A5.453,5.453,0,0,0,58.7,33.308m-.744.548a4.711,4.711,0,0,1-4.479,4.48l-.166.008.008-.165A4.709,4.709,0,0,1,57.795,33.7l.165-.008Z" transform="translate(10860.758 5000.381)" fill="#1b441c"></path><path id="Path_751" data-name="Path 751" d="M51.117,41.253l0,0c-.079-.094-.162-.186-.244-.273-.025-.029-.047-.053-.068-.075l-.1-.1c-.063-.065-.126-.131-.192-.194-.089-.092-.177-.177-.265-.26-.027-.027-.052-.049-.076-.071l-.1-.093c-.068-.062-.135-.123-.206-.183A12.743,12.743,0,0,0,44.82,37.31v.776a11.826,11.826,0,0,1,4.5,2.426c.073.062.144.126.215.19l.068.061a1.568,1.568,0,0,1,.116.107c.088.081.179.17.267.258s.18.182.265.273l.1.11c.086.1.171.19.254.287a11.86,11.86,0,0,1,2.425,4.495H53.8a12.78,12.78,0,0,0-2.687-5.042" transform="translate(10862.109 4999.569)" fill="#1b441c"></path><path id="Path_752" data-name="Path 752" d="M58.471,57.052c0,.027.007.052.008.079v-.079Z" transform="translate(10859.566 4995.891)" fill="#1b441c"></path><path id="Path_753" data-name="Path 753" d="M56.51,56.735a1.948,1.948,0,0,0-1.946-1.946H50.372a9.164,9.164,0,0,1-.245.943c-.042.128-.083.255-.13.382a9.537,9.537,0,0,1-2.859,4.033l-.1.081,0,0a9.372,9.372,0,0,1-2.64,1.491l-.063.022c-.1.037-.21.073-.318.107-.312.1-.629.181-.943.246v4.19a1.95,1.95,0,0,0,1.947,1.948h5.8l-.085-.133a5.443,5.443,0,0,0-6.236-2.244v.789a4.711,4.711,0,0,1,4,.33c.127.075.25.153.371.237l.393.273H45.018a1.2,1.2,0,0,1-1.2-1.2v-3.6l.109-.032c.123-.035.247-.073.369-.113a10,10,0,0,0,3.386-1.879l.1-.084,0,0a10.151,10.151,0,0,0,1.124-1.129l.074-.1a9.969,9.969,0,0,0,1.841-3.335l.01-.032c.035-.112.069-.225.1-.338l.031-.109h3.6a1.192,1.192,0,0,1,1.166.943h.022l.007.229,0,4.273-.273-.39c-.087-.123-.168-.249-.244-.38a4.688,4.688,0,0,1-.332-4h-.788a5.446,5.446,0,0,0,2.244,6.237l.111.071-.042-.27.072.072Z" transform="translate(10862.436 4996.312)" fill="#1b441c"></path><path id="Path_754" data-name="Path 754" d="M56.51,56.735a1.948,1.948,0,0,0-1.946-1.946H50.372a9.164,9.164,0,0,1-.245.943c-.042.128-.083.255-.13.382a9.537,9.537,0,0,1-2.859,4.033l-.1.081,0,0a9.372,9.372,0,0,1-2.64,1.491l-.063.022c-.1.037-.21.073-.318.107-.312.1-.629.181-.943.246v4.19a1.95,1.95,0,0,0,1.947,1.948h5.8l-.085-.133a5.443,5.443,0,0,0-6.236-2.244v.789a4.711,4.711,0,0,1,4,.33c.127.075.25.153.371.237l.393.273H45.018a1.2,1.2,0,0,1-1.2-1.2v-3.6l.109-.032c.123-.035.247-.073.369-.113a10,10,0,0,0,3.386-1.879l.1-.084,0,0a10.151,10.151,0,0,0,1.124-1.129l.074-.1a9.969,9.969,0,0,0,1.841-3.335l.01-.032c.035-.112.069-.225.1-.338l.031-.109h3.6a1.192,1.192,0,0,1,1.166.943h.022l.007.229,0,4.273-.273-.39c-.087-.123-.168-.249-.244-.38a4.688,4.688,0,0,1-.332-4h-.788a5.446,5.446,0,0,0,2.244,6.237l.111.071-.042-.27.072.072Z" transform="translate(10862.436 4996.312)" fill="#1b441c"></path><path id="Path_755" data-name="Path 755" d="M52.4,39.362A5.445,5.445,0,0,0,50.157,45.6h.79a4.687,4.687,0,0,1,.332-4c.061-.11.136-.229.234-.371l.273-.4v4.244a1.2,1.2,0,0,1-1.2,1.2H46.991l-.032-.108c-.036-.121-.074-.246-.116-.369a9.991,9.991,0,0,0-1.879-3.386l-.089-.106,0,0a10.475,10.475,0,0,0-1.122-1.118l-.1-.074a9.968,9.968,0,0,0-3.334-1.84l-.079-.024c-.1-.03-.193-.06-.291-.088l-.109-.031v-3.6a1.187,1.187,0,0,1,.943-1.164v-.021l.229-.01,4.274,0-.39.273c-.124.087-.248.167-.381.244a4.678,4.678,0,0,1-4,.333v.789a5.445,5.445,0,0,0,6.237-2.246l.07-.11-.275.046.076-.076H41.041A1.948,1.948,0,0,0,39.1,35.528l0,15.289A1.95,1.95,0,1,1,35.2,50.8l-.006-15.269a1.949,1.949,0,0,0-1.949-1.946h-5.8l.085.133a5.445,5.445,0,0,0,6.236,2.243v-.787a4.72,4.72,0,0,1-4-.331c-.146-.086-.264-.162-.373-.24l-.379-.273h4.229a1.2,1.2,0,0,1,1.2,1.2v3.6l-.108.031c-.124.036-.246.071-.369.112a9.98,9.98,0,0,0-3.386,1.88l-.106.088,0,0a9.892,9.892,0,0,0-1.091,1.094l-.1.129A10.014,10.014,0,0,0,27.441,45.8l-.142.477H23.7a1.192,1.192,0,0,1-1.167-.943h-.023l-.006-.228,0-4.275.273.391c.086.123.166.249.243.378a4.758,4.758,0,0,1,.578,1.636,4.693,4.693,0,0,1-.245,2.368h.787A5.445,5.445,0,0,0,21.9,39.368l-.108-.069.045.273-.077-.078v5.588A1.945,1.945,0,0,0,23.7,47.024h4.191c.067-.321.149-.638.244-.942l.038-.115c.029-.089.059-.179.094-.267a9.226,9.226,0,0,1,1.57-2.74,9.32,9.32,0,0,1,1.287-1.291l.1-.083,0,0c.16-.129.312-.242.46-.343l.234-.16v9.73a5.5,5.5,0,0,0,5.215,5.729A5.5,5.5,0,0,0,42.35,50.8V41.064l.236.166c.191.134.384.281.574.436a9.565,9.565,0,0,1,1.293,1.287l.092.11,0,0A9.4,9.4,0,0,1,46.022,45.7l.049.143c.028.08.055.159.08.24a9.7,9.7,0,0,1,.247.942h4.188a1.951,1.951,0,0,0,1.949-1.949v-5.8ZM41.464,50.817a4.512,4.512,0,0,1-4.324,4.669A4.521,4.521,0,0,1,32.814,50.8V40.56l.083-.042a9.814,9.814,0,0,1,.973-.421l.085-.028c.056-.02.112-.038.168-.055l.193-.057v10.86A2.838,2.838,0,1,0,39.96,50.8V39.945l.2.06c.067.02.133.044.2.067l.063.022a8.4,8.4,0,0,1,.965.417l.082.041Z" transform="translate(10866.406 5000.263)" fill="#1b441c"></path><path id="Path_756" data-name="Path 756" d="M52.4,39.362A5.445,5.445,0,0,0,50.157,45.6h.79a4.687,4.687,0,0,1,.332-4c.061-.11.136-.229.234-.371l.273-.4v4.244a1.2,1.2,0,0,1-1.2,1.2H46.991l-.032-.108c-.036-.121-.074-.246-.116-.369a9.991,9.991,0,0,0-1.879-3.386l-.089-.106,0,0a10.475,10.475,0,0,0-1.122-1.118l-.1-.074a9.968,9.968,0,0,0-3.334-1.84l-.079-.024c-.1-.03-.193-.06-.291-.088l-.109-.031v-3.6a1.187,1.187,0,0,1,.943-1.164v-.021l.229-.01,4.274,0-.39.273c-.124.087-.248.167-.381.244a4.678,4.678,0,0,1-4,.333v.789a5.445,5.445,0,0,0,6.237-2.246l.07-.11-.275.046.076-.076H41.041A1.948,1.948,0,0,0,39.1,35.528l0,15.289A1.95,1.95,0,1,1,35.2,50.8l-.006-15.269a1.949,1.949,0,0,0-1.949-1.946h-5.8l.085.133a5.445,5.445,0,0,0,6.236,2.243v-.787a4.72,4.72,0,0,1-4-.331c-.146-.086-.264-.162-.373-.24l-.379-.273h4.229a1.2,1.2,0,0,1,1.2,1.2v3.6l-.108.031c-.124.036-.246.071-.369.112a9.98,9.98,0,0,0-3.386,1.88l-.106.088,0,0a9.892,9.892,0,0,0-1.091,1.094l-.1.129A10.014,10.014,0,0,0,27.441,45.8l-.142.477H23.7a1.192,1.192,0,0,1-1.167-.943h-.023l-.006-.228,0-4.275.273.391c.086.123.166.249.243.378a4.758,4.758,0,0,1,.578,1.636,4.693,4.693,0,0,1-.245,2.368h.787A5.445,5.445,0,0,0,21.9,39.368l-.108-.069.045.273-.077-.078v5.588A1.945,1.945,0,0,0,23.7,47.024h4.191c.067-.321.149-.638.244-.942l.038-.115c.029-.089.059-.179.094-.267a9.226,9.226,0,0,1,1.57-2.74,9.32,9.32,0,0,1,1.287-1.291l.1-.083,0,0c.16-.129.312-.242.46-.343l.234-.16v9.73a5.5,5.5,0,0,0,5.215,5.729A5.5,5.5,0,0,0,42.35,50.8V41.064l.236.166c.191.134.384.281.574.436a9.565,9.565,0,0,1,1.293,1.287l.092.11,0,0A9.4,9.4,0,0,1,46.022,45.7l.049.143c.028.08.055.159.08.24a9.7,9.7,0,0,1,.247.942h4.188a1.951,1.951,0,0,0,1.949-1.949v-5.8ZM41.464,50.817a4.512,4.512,0,0,1-4.324,4.669A4.521,4.521,0,0,1,32.814,50.8V40.56l.083-.042a9.814,9.814,0,0,1,.973-.421l.085-.028c.056-.02.112-.038.168-.055l.193-.057v10.86A2.838,2.838,0,1,0,39.96,50.8V39.945l.2.06c.067.02.133.044.2.067l.063.022a8.4,8.4,0,0,1,.965.417l.082.041Z" transform="translate(10866.406 5000.263)" fill="#1b441c"></path><path id="Path_757" data-name="Path 757" d="M35.2,62.1a9.163,9.163,0,0,1-.943-.245c-.128-.041-.255-.083-.381-.13a9.515,9.515,0,0,1-4.033-2.859l-.086-.1,0,0a9.352,9.352,0,0,1-1.487-2.635l-.019-.055c-.037-.108-.075-.215-.111-.326-.1-.312-.181-.629-.246-.943h-4.19a1.95,1.95,0,0,0-1.947,1.948v5.8l.133-.085a5.443,5.443,0,0,0,2.244-6.236h-.789a4.711,4.711,0,0,1-.33,4c-.074.127-.153.25-.237.371l-.273.393V56.743a1.2,1.2,0,0,1,1.2-1.2h3.6l.031.109c.036.123.073.247.113.369a10.026,10.026,0,0,0,1.879,3.386l.089.106,0,0a10.3,10.3,0,0,0,1.122,1.116l.1.076a9.984,9.984,0,0,0,3.335,1.841l.035.011c.112.035.223.068.335.1l.108.031v3.6a1.191,1.191,0,0,1-.943,1.166v.022l-.229.007-4.273,0,.388-.273c.123-.086.249-.168.38-.244a4.688,4.688,0,0,1,4-.332v-.788a5.446,5.446,0,0,0-6.237,2.244l-.071.111.229-.036-.059.066h5.614A1.947,1.947,0,0,0,35.2,66.288Z" transform="translate(10866.405 4996.311)" fill="#1b441c"></path></g><g id="Group_663" data-name="Group 663" transform="translate(-223.436 47.881)"><path id="Path_10001" data-name="Path 10001" d="M10.416-7.168a8.841,8.841,0,0,1,.224-2.448c.224-.576.784-.56,1.3-.576v-.368c-.608.016-1.2.048-1.792.064-.624-.016-1.232-.048-1.856-.064v.368c.624,0,1.264.064,1.488.736a10.715,10.715,0,0,1,.16,2.288v3.5c0,2.144-1.1,3.3-3.312,3.3-2.192,0-2.992-1.168-2.992-3.216V-7.52a10.194,10.194,0,0,1,.144-2.128c.192-.56.864-.544,1.376-.544v-.368c-.816.016-1.616.048-2.432.064-.752-.016-1.52-.048-2.272-.064v.368c.512,0,1.168,0,1.376.544a9.2,9.2,0,0,1,.16,2.128V-3.7c0,2.9,1.392,3.9,4.256,3.9,3.04,0,4.176-1.5,4.176-4.416Zm6.832-2.176c0-.128-.016-.576.1-.672a2.542,2.542,0,0,1,.944-.08A1.923,1.923,0,0,1,20.48-7.968a2.02,2.02,0,0,1-.816,1.888,3.382,3.382,0,0,1-1.9.336h-.512Zm0,4.032h.5a5.477,5.477,0,0,1,2.5.336,2.228,2.228,0,0,1,1.152,2.128c0,1.52-.7,2.448-2.272,2.448-.608,0-1.408.016-1.68-.672a6.967,6.967,0,0,1-.192-2.016ZM15.6-3.008A10.194,10.194,0,0,1,15.456-.88c-.176.56-.848.544-1.36.544V.032c.9-.016,1.808-.048,2.7-.064.7.016,1.392.048,2.1.064A6.6,6.6,0,0,0,21.84-.384,2.638,2.638,0,0,0,23.392-2.7,2.641,2.641,0,0,0,22.16-4.912a4.823,4.823,0,0,0-2.336-.656V-5.6c1.216-.368,2.4-.992,2.4-2.448,0-2.128-2.256-2.56-3.936-2.512-.64.016-1.264.048-1.9.064-.768-.016-1.52-.048-2.288-.064v.368c.512,0,1.184-.016,1.36.544A10.194,10.194,0,0,1,15.6-7.52ZM27.616-3.84h3.952l.624,1.648a3.781,3.781,0,0,1,.32,1.248c0,.624-.784.592-1.232.608V.032c.768-.016,1.552-.048,2.32-.064.752.016,1.52.048,2.272.064V-.336A1.77,1.77,0,0,1,34.5-.928a11.793,11.793,0,0,1-.832-1.76l-3.232-8.128h-.544L27.44-4.528C26.992-3.5,26.56-2.5,26.112-1.472A1.552,1.552,0,0,1,24.576-.336V.032c.56-.016,1.1-.048,1.664-.064.592.016,1.168.048,1.76.064V-.336c-.48-.048-1.3,0-1.3-.688a9.213,9.213,0,0,1,.768-2.416Zm.208-.512L29.6-8.864l1.76,4.512ZM39.072-3.008a9.2,9.2,0,0,1-.16,2.128c-.208.544-.864.544-1.376.544V.032c2.752-.016,5.52-.016,8.272-.064.272.032.56.048.832.064L46.784-2.8h-.4c-.144.9-.24,1.5-1.04,2a4.1,4.1,0,0,1-2.272.4C41.04-.4,40.72-.736,40.72-2.784V-7.52a9.2,9.2,0,0,1,.16-2.128c.208-.544.864-.544,1.376-.544v-.368c-.816.016-1.616.048-2.432.064-.768-.016-1.52-.048-2.288-.064v.368c.512,0,1.168,0,1.376.544a9.2,9.2,0,0,1,.16,2.128ZM51.36-3.84h3.952l.624,1.648a3.781,3.781,0,0,1,.32,1.248c0,.624-.784.592-1.232.608V.032c.768-.016,1.552-.048,2.32-.064.752.016,1.52.048,2.272.064V-.336A1.77,1.77,0,0,1,58.24-.928a11.793,11.793,0,0,1-.832-1.76l-3.232-8.128h-.544L51.184-4.528C50.736-3.5,50.3-2.5,49.856-1.472A1.552,1.552,0,0,1,48.32-.336V.032c.56-.016,1.1-.048,1.664-.064.592.016,1.168.048,1.76.064V-.336c-.48-.048-1.3,0-1.3-.688a9.213,9.213,0,0,1,.768-2.416Zm.208-.512,1.776-4.512L55.1-4.352ZM62.88-3.328a12.51,12.51,0,0,1-.128,2.208c-.16.688-.752.72-1.376.784V.032c.592-.016,1.184-.048,1.776-.064.608.016,1.232.048,1.84.064V-.336C64.4-.4,63.872-.368,63.6-.992a7.59,7.59,0,0,1-.24-2.336V-8.7h.032L69.648-1.12c.352.448.7.9,1.056,1.328h.48v-6.9a15.609,15.609,0,0,1,.192-2.8c.208-.688.624-.64,1.216-.7v-.368c-.592.016-1.136.048-1.7.064-.592-.016-1.168-.048-1.76-.064v.368c.8.128,1.232.064,1.424.96A13.972,13.972,0,0,1,70.7-6.768V-2.32h-.032L63.92-10.56c-.416.016-.848.048-1.264.064-.512-.016-1.008-.048-1.52-.064v.368a1.84,1.84,0,0,1,1.744.96ZM83.28-9.76a5.484,5.484,0,0,0-3.248-.992,5.413,5.413,0,0,0-5.6,5.6A5.1,5.1,0,0,0,79.888.208a5.329,5.329,0,0,0,3.536-1.2l.384.816h.208v-3.5h-.288c-.48,1.92-1.3,3.52-3.536,3.52-2.832,0-3.76-2.576-3.76-4.992,0-2.4.864-5.232,3.728-5.232A3.324,3.324,0,0,1,83.536-7.36H83.9l-.128-3.152h-.24Zm4.4,6.72a9.2,9.2,0,0,1-.16,2.128c-.208.544-.864.544-1.376.544V0h8.7l.144-2.576h-.368c-.208,1.9-1.3,2.112-2.96,2.144-.64.016-1.632-.016-2.048-.576a3.045,3.045,0,0,1-.288-1.616V-5.248c1.536,0,2.384.08,2.608,1.76H92.3c-.016-.656-.032-1.328-.064-1.984.032-.72.048-1.456.064-2.176h-.368c-.1,1.152-.416,2.064-2.608,1.968V-9.472a2.561,2.561,0,0,1,.016-.592c.048-.08.16-.064.4-.064H90.9c1.7,0,2.528.112,2.832,1.984H94.1V-10.56H86.144v.432c.512,0,1.168,0,1.376.544a9.2,9.2,0,0,1,.16,2.128Z" transform="translate(10975.49 4989.167)" fill="#1b441c" stroke="#1b441c" stroke-width="0.2"></path><path id="Path_10000" data-name="Path 10000" d="M2.1-3.328A12.511,12.511,0,0,1,1.968-1.12c-.16.688-.752.72-1.376.784V.032C1.184.016,1.776-.016,2.368-.032c.608.016,1.232.048,1.84.064V-.336C3.616-.4,3.088-.368,2.816-.992a7.59,7.59,0,0,1-.24-2.336V-8.7h.032L8.864-1.12c.352.448.7.9,1.056,1.328h.48v-6.9a15.61,15.61,0,0,1,.192-2.8c.208-.688.624-.64,1.216-.7v-.368c-.592.016-1.136.048-1.7.064-.592-.016-1.168-.048-1.76-.064v.368c.8.128,1.232.064,1.424.96A13.971,13.971,0,0,1,9.92-6.768V-2.32H9.888L3.136-10.56c-.416.016-.848.048-1.264.064-.512-.016-1.008-.048-1.52-.064v.368a1.84,1.84,0,0,1,1.744.96ZM15.072-3.84h3.952l.624,1.648a3.78,3.78,0,0,1,.32,1.248c0,.624-.784.592-1.232.608V.032c.768-.016,1.552-.048,2.32-.064.752.016,1.52.048,2.272.064V-.336a1.77,1.77,0,0,1-1.376-.592,11.793,11.793,0,0,1-.832-1.76l-3.232-8.128h-.544L14.9-4.528c-.448,1.024-.88,2.032-1.328,3.056A1.552,1.552,0,0,1,12.032-.336V.032c.56-.016,1.1-.048,1.664-.064.592.016,1.168.048,1.76.064V-.336c-.48-.048-1.3,0-1.3-.688a9.213,9.213,0,0,1,.768-2.416Zm.208-.512,1.776-4.512,1.76,4.512ZM32.32-10.56H22.5v2.5h.368c.064-1.9.832-1.984,2.416-1.984.64,0,1.344-.048,1.344.432v7.584c0,1.184-.224,1.632-1.776,1.7V.032c.864-.016,1.7-.048,2.544-.064.88.016,1.776.048,2.656.064V-.336C28.5-.4,28.272-.848,28.272-2.032V-9.616c0-.512.96-.432,1.552-.432,1.5,0,2.112.416,2.208,1.984h.432ZM43.952-7.168a8.841,8.841,0,0,1,.224-2.448c.224-.576.784-.56,1.3-.576v-.368c-.608.016-1.2.048-1.792.064-.624-.016-1.232-.048-1.856-.064v.368c.624,0,1.264.064,1.488.736a10.715,10.715,0,0,1,.16,2.288v3.5c0,2.144-1.1,3.3-3.312,3.3-2.192,0-2.992-1.168-2.992-3.216V-7.52a10.194,10.194,0,0,1,.144-2.128c.192-.56.864-.544,1.376-.544v-.368c-.816.016-1.616.048-2.432.064-.752-.016-1.52-.048-2.272-.064v.368c.512,0,1.168,0,1.376.544a9.2,9.2,0,0,1,.16,2.128V-3.7c0,2.9,1.392,3.9,4.256,3.9,3.04,0,4.176-1.5,4.176-4.416ZM50.336-9.5c0-.176-.032-.48.176-.576a5.577,5.577,0,0,1,1.04-.016,2.162,2.162,0,0,1,2.24,2.4c0,2.32-1.456,2.368-3.456,2.368Zm2.4,4.336c1.584-.144,2.9-1.024,2.9-2.752,0-2.224-1.84-2.64-3.664-2.64-.672.016-1.36.048-2.032.064-.912-.016-1.84-.048-2.752-.064v.368c.512,0,1.184-.016,1.36.544a10.194,10.194,0,0,1,.144,2.128v4.512A10.194,10.194,0,0,1,48.544-.88c-.176.544-.848.544-1.36.544V.032c.8-.016,1.6-.048,2.4-.064.768.016,1.52.048,2.256.064V-.336c-.512,0-1.168.016-1.36-.544a10.194,10.194,0,0,1-.144-2.128V-4.9c.848,0,.784.1,1.312.7L54.3-.9l.752.928c.4-.016.8-.048,1.2-.064.48.016.96.048,1.44.064V-.336a2.118,2.118,0,0,1-1.568-.944ZM61.568-3.84H65.52l.624,1.648a3.781,3.781,0,0,1,.32,1.248c0,.624-.784.592-1.232.608V.032c.768-.016,1.552-.048,2.32-.064.752.016,1.52.048,2.272.064V-.336a1.77,1.77,0,0,1-1.376-.592,11.793,11.793,0,0,1-.832-1.76l-3.232-8.128H63.84L61.392-4.528c-.448,1.024-.88,2.032-1.328,3.056A1.552,1.552,0,0,1,58.528-.336V.032c.56-.016,1.1-.048,1.664-.064.592.016,1.168.048,1.76.064V-.336c-.48-.048-1.3,0-1.3-.688a9.213,9.213,0,0,1,.768-2.416Zm.208-.512,1.776-4.512,1.76,4.512ZM72.592-3.008a9.2,9.2,0,0,1-.16,2.128c-.208.544-.864.544-1.376.544V.032c2.752-.016,5.52-.016,8.272-.064.272.032.56.048.832.064L80.3-2.8h-.4c-.144.9-.24,1.5-1.04,2a4.1,4.1,0,0,1-2.272.4C74.56-.4,74.24-.736,74.24-2.784V-7.52a9.2,9.2,0,0,1,.16-2.128c.208-.544.864-.544,1.376-.544v-.368c-.816.016-1.616.048-2.432.064-.768-.016-1.52-.048-2.288-.064v.368c.512,0,1.168,0,1.376.544a9.2,9.2,0,0,1,.16,2.128ZM82-.08h.176l.384-.672a4.434,4.434,0,0,0,2.8.96c1.872,0,3.824-1.008,3.824-3.1s-1.856-2.928-3.52-3.616c-.992-.416-2.128-.848-2.128-2.112a1.732,1.732,0,0,1,1.872-1.7c1.552,0,2.3,1.2,2.672,2.528h.368l-.08-2.768h-.176l-.368.624a4.142,4.142,0,0,0-2.416-.816,2.9,2.9,0,0,0-3.168,2.88c0,1.824,1.552,2.592,3.008,3.152,1.168.464,2.432,1.04,2.432,2.5a2.049,2.049,0,0,1-2.288,2c-1.84,0-2.7-1.36-3.024-2.976H82Z" transform="translate(10978.296 5006.974)" fill="#1b441c" stroke="#1b441c" stroke-width="0.2"></path></g><g id="Group_339" data-name="Group 339" transform="translate(10743.357 5023.264)"><path id="Path_8648" data-name="Path 8648" d="M66.885,32.13a2.215,2.215,0,1,1-2.215,2.215,2.215,2.215,0,0,1,2.215-2.215Zm0,.383a1.824,1.824,0,0,0,0,3.64,1.726,1.726,0,0,0,1.726-1.808,1.759,1.759,0,0,0-1.743-1.832ZM66.5,35.55h-.432V33.238a4.471,4.471,0,0,1,.814-.073,1.2,1.2,0,0,1,.733.179.586.586,0,0,1-.236,1.042h0a.684.684,0,0,1,.391.554,2.288,2.288,0,0,0,.163.586h-.472a1.767,1.767,0,0,1-.179-.611c-.057-.252-.212-.358-.537-.358H66.47Zm0-1.3h.285c.318,0,.594-.1.594-.375s-.138-.375-.554-.375a2.192,2.192,0,0,0-.326,0Z" transform="translate(-64.67 -32.13)" fill="#1b441c"></path></g></g></svg>